<svg width="500" height="350" viewBox="0 0 500 350" fill="none" xmlns="http://www.w3.org/2000/svg">
  <defs>
    <linearGradient id="aboutBg" x1="0%" y1="0%" x2="100%" y2="100%">
      <stop offset="0%" style="stop-color:#F0F9FF"/>
      <stop offset="100%" style="stop-color:#E0F2FE"/>
    </linearGradient>
    <linearGradient id="personGradient" x1="0%" y1="0%" x2="100%" y2="100%">
      <stop offset="0%" style="stop-color:#3B82F6"/>
      <stop offset="100%" style="stop-color:#1D4ED8"/>
    </linearGradient>
  </defs>

  <!-- Background -->
  <rect width="500" height="350" fill="url(#aboutBg)" rx="16"/>

  <!-- Teacher/Professor -->
  <circle cx="150" cy="120" r="35" fill="url(#personGradient)"/>
  <circle cx="150" cy="110" r="15" fill="white"/>
  <rect x="130" y="140" width="40" height="50" rx="20" fill="url(#personGradient)"/>
  <rect x="135" y="155" width="30" height="8" rx="4" fill="white" opacity="0.8"/>
  <rect x="140" y="170" width="20" height="6" rx="3" fill="white" opacity="0.6"/>

  <!-- Students -->
  <circle cx="320" cy="140" r="25" fill="#10B981"/>
  <circle cx="320" cy="132" r="10" fill="white"/>
  <rect x="305" y="150" width="30" height="35" rx="15" fill="#10B981"/>

  <circle cx="380" cy="150" r="22" fill="#F59E0B"/>
  <circle cx="380" cy="143" r="9" fill="white"/>
  <rect x="368" y="158" width="24" height="30" rx="12" fill="#F59E0B"/>

  <circle cx="420" cy="160" r="20" fill="#EF4444"/>
  <circle cx="420" cy="154" r="8" fill="white"/>
  <rect x="410" y="165" width="20" height="25" rx="10" fill="#EF4444"/>

  <!-- Speech Bubbles -->
  <ellipse cx="220" cy="100" rx="60" ry="25" fill="white" stroke="#E2E8F0" stroke-width="2"/>
  <text x="220" y="107" text-anchor="middle" font-family="Arial, sans-serif" font-size="10" fill="#374151">Welcome to class!</text>

  <ellipse cx="280" cy="180" rx="50" ry="20" fill="white" stroke="#E2E8F0" stroke-width="2"/>
  <text x="280" y="187" text-anchor="middle" font-family="Arial, sans-serif" font-size="9" fill="#374151">Great attendance system!</text>

  <!-- Books/Study Materials -->
  <rect x="80" y="220" width="40" height="50" rx="3" fill="#8B5CF6"/>
  <rect x="85" y="225" width="30" height="3" rx="1.5" fill="white" opacity="0.7"/>
  <rect x="85" y="235" width="25" height="3" rx="1.5" fill="white" opacity="0.7"/>
  <rect x="85" y="245" width="30" height="3" rx="1.5" fill="white" opacity="0.7"/>

  <rect x="130" y="230" width="35" height="45" rx="3" fill="#06B6D4"/>
  <rect x="135" y="235" width="25" height="3" rx="1.5" fill="white" opacity="0.7"/>
  <rect x="135" y="245" width="20" height="3" rx="1.5" fill="white" opacity="0.7"/>

  <!-- Desk/Table -->
  <rect x="50" y="270" width="400" height="15" rx="7" fill="#8B4513"/>
  <rect x="50" y="275" width="400" height="8" fill="#654321"/>

  <!-- Chairs -->
  <rect x="120" y="285" width="20" height="30" rx="10" fill="#4B5563"/>
  <rect x="115" y="290" width="30" height="8" rx="4" fill="#4B5563"/>
  <rect x="125" y="315" width="10" height="15" rx="5" fill="#4B5563"/>

  <rect x="200" y="285" width="20" height="30" rx="10" fill="#4B5563"/>
  <rect x="195" y="290" width="30" height="8" rx="4" fill="#4B5563"/>
  <rect x="205" y="315" width="10" height="15" rx="5" fill="#4B5563"/>

  <rect x="280" y="285" width="20" height="30" rx="10" fill="#4B5563"/>
  <rect x="275" y="290" width="30" height="8" rx="4" fill="#4B5563"/>
  <rect x="285" y="315" width="10" height="15" rx="5" fill="#4B5563"/>

  <rect x="360" y="285" width="20" height="30" rx="10" fill="#4B5563"/>
  <rect x="355" y="290" width="30" height="8" rx="4" fill="#4B5563"/>
  <rect x="365" y="315" width="10" height="15" rx="5" fill="#4B5563"/>
</svg>