<svg width="300" height="200" viewBox="0 0 300 200" fill="none" xmlns="http://www.w3.org/2000/svg">
  <defs>
    <linearGradient id="feature2Bg" x1="0%" y1="0%" x2="100%" y2="100%">
      <stop offset="0%" style="stop-color:#F0FDF4"/>
      <stop offset="100%" style="stop-color:#DCFCE7"/>
    </linearGradient>
  </defs>

  <!-- Background -->
  <rect width="300" height="200" fill="url(#feature2Bg)" rx="12"/>

  <!-- Mobile/Tablet Interface -->
  <rect x="60" y="30" width="180" height="140" rx="20" fill="white" stroke="#D1FAE5" stroke-width="2"/>
  <rect x="75" y="45" width="150" height="20" rx="10" fill="#F1F5F9"/>
  <circle cx="85" cy="55" r="4" fill="#10B981"/>
  <rect x="95" y="50" width="30" height="10" rx="5" fill="#CBD5E1"/>

  <!-- Student Cards -->
  <rect x="80" y="75" width="140" height="25" rx="8" fill="#10B981" opacity="0.1" stroke="#10B981" stroke-width="1"/>
  <circle cx="95" cy="87.5" r="8" fill="#10B981"/>
  <rect x="110" y="82" width="40" height="6" rx="3" fill="#10B981"/>
  <rect x="110" y="90" width="30" height="4" rx="2" fill="#65A30D"/>
  <circle cx="200" cy="87.5" r="6" fill="#16A34A"/>

  <rect x="80" y="110" width="140" height="25" rx="8" fill="#3B82F6" opacity="0.1" stroke="#3B82F6" stroke-width="1"/>
  <circle cx="95" cy="122.5" r="8" fill="#3B82F6"/>
  <rect x="110" y="117" width="35" height="6" rx="3" fill="#3B82F6"/>
  <rect x="110" y="125" width="25" height="4" rx="2" fill="#1D4ED8"/>
  <circle cx="200" cy="122.5" r="6" fill="#2563EB"/>

  <!-- Checkmarks -->
  <path d="M190 80 L195 85 L205 75" stroke="#16A34A" stroke-width="2" stroke-linecap="round" stroke-linejoin="round"/>
  <path d="M190 115 L195 120 L205 110" stroke="#2563EB" stroke-width="2" stroke-linecap="round" stroke-linejoin="round"/>
</svg>