<svg width="300" height="200" viewBox="0 0 300 200" fill="none" xmlns="http://www.w3.org/2000/svg">
  <defs>
    <linearGradient id="feature4Bg" x1="0%" y1="0%" x2="100%" y2="100%">
      <stop offset="0%" style="stop-color:#FCE7F3"/>
      <stop offset="100%" style="stop-color:#FBCFE8"/>
    </linearGradient>
  </defs>

  <!-- Background -->
  <rect width="300" height="200" fill="url(#feature4Bg)" rx="12"/>

  <!-- Shield/Lock Icon -->
  <path d="M150 40 L130 40 L125 50 L135 50 L135 70 L145 70 L145 50 L155 50 Z" fill="#BE185D"/>
  <rect x="135" y="70" width="30" height="20" rx="15" fill="#BE185D"/>
  <circle cx="150" cy="80" r="3" fill="white"/>

  <!-- Connected Devices -->
  <rect x="60" y="120" width="50" height="30" rx="6" fill="white" stroke="#BE185D" stroke-width="1"/>
  <rect x="65" y="125" width="40" height="4" rx="2" fill="#E2E8F0"/>
  <circle cx="75" cy="135" r="3" fill="#10B981"/>
  <rect x="85" y="132" width="15" height="6" rx="3" fill="#CBD5E1"/>

  <rect x="190" y="110" width="50" height="30" rx="6" fill="white" stroke="#BE185D" stroke-width="1"/>
  <rect x="195" y="115" width="40" height="4" rx="2" fill="#E2E8F0"/>
  <circle cx="205" cy="125" r="3" fill="#3B82F6"/>
  <rect x="215" y="122" width="15" height="6" rx="3" fill="#CBD5E1"/>

  <!-- Connection Lines -->
  <path d="M110 135 L140 125" stroke="#BE185D" stroke-width="2" stroke-dasharray="5,5"/>
  <path d="M160 125 L190 115" stroke="#BE185D" stroke-width="2" stroke-dasharray="5,5"/>
</svg>