<svg width="300" height="200" viewBox="0 0 300 200" fill="none" xmlns="http://www.w3.org/2000/svg">
  <defs>
    <linearGradient id="feature1Bg" x1="0%" y1="0%" x2="100%" y2="100%">
      <stop offset="0%" style="stop-color:#F0F9FF"/>
      <stop offset="100%" style="stop-color:#E0F2FE"/>
    </linearGradient>
  </defs>

  <!-- Background -->
  <rect width="300" height="200" fill="url(#feature1Bg)" rx="12"/>

  <!-- Dashboard Screen -->
  <rect x="30" y="40" width="240" height="140" rx="8" fill="white" stroke="#E2E8F0" stroke-width="1"/>

  <!-- Header -->
  <rect x="45" y="55" width="210" height="20" rx="4" fill="#F1F5F9"/>
  <circle cx="60" cy="65" r="5" fill="#3B82F6"/>
  <rect x="75" y="60" width="40" height="10" rx="5" fill="#CBD5E1"/>
  <circle cx="250" cy="65" r="8" fill="#10B981"/>

  <!-- Stats Grid -->
  <rect x="45" y="85" width="65" height="50" rx="6" fill="#3B82F6" opacity="0.1"/>
  <rect x="50" y="90" width="25" height="6" rx="3" fill="#3B82F6"/>
  <rect x="50" y="100" width="35" height="10" rx="5" fill="#3B82F6"/>
  <rect x="50" y="115" width="30" height="4" rx="2" fill="#94A3B8"/>

  <rect x="120" y="85" width="65" height="50" rx="6" fill="#10B981" opacity="0.1"/>
  <rect x="125" y="90" width="30" height="6" rx="3" fill="#10B981"/>
  <rect x="125" y="100" width="40" height="10" rx="5" fill="#10B981"/>
  <rect x="125" y="115" width="35" height="4" rx="2" fill="#94A3B8"/>

  <rect x="195" y="85" width="65" height="50" rx="6" fill="#F59E0B" opacity="0.1"/>
  <rect x="200" y="90" width="25" height="6" rx="3" fill="#F59E0B"/>
  <rect x="200" y="100" width="35" height="10" rx="5" fill="#F59E0B"/>
  <rect x="200" y="115" width="30" height="4" rx="2" fill="#94A3B8"/>

  <!-- Chart -->
  <rect x="45" y="145" width="140" height="25" rx="4" fill="#F8FAFC"/>
  <rect x="50" y="150" width="6" height="15" fill="#3B82F6"/>
  <rect x="60" y="148" width="6" height="17" fill="#10B981"/>
  <rect x="70" y="152" width="6" height="13" fill="#F59E0B"/>
  <rect x="80" y="146" width="6" height="19" fill="#EF4444"/>
  <rect x="90" y="149" width="6" height="16" fill="#8B5CF6"/>
  <rect x="100" y="151" width="6" height="14" fill="#06B6D4"/>
  <rect x="110" y="147" width="6" height="18" fill="#84CC16"/>
  <rect x="120" y="150" width="6" height="15" fill="#F97316"/>
  <rect x="130" y="148" width="6" height="17" fill="#EC4899"/>
  <rect x="140" y="153" width="6" height="12" fill="#6366F1"/>
  <rect x="150" y="149" width="6" height="16" fill="#14B8A6"/>
  <rect x="160" y="146" width="6" height="19" fill="#65A30D"/>
  <rect x="170" y="151" width="6" height="14" fill="#EA580C"/>
</svg>