<svg width="600" height="400" viewBox="0 0 600 400" fill="none" xmlns="http://www.w3.org/2000/svg">
  <defs>
    <linearGradient id="heroBg" x1="0%" y1="0%" x2="100%" y2="100%">
      <stop offset="0%" style="stop-color:#F8FAFC"/>
      <stop offset="100%" style="stop-color:#E2E8F0"/>
    </linearGradient>
    <linearGradient id="screenBg" x1="0%" y1="0%" x2="100%" y2="100%">
      <stop offset="0%" style="stop-color:#FFFFFF"/>
      <stop offset="100%" style="stop-color:#F1F5F9"/>
    </linearGradient>
    <linearGradient id="cardBg" x1="0%" y1="0%" x2="100%" y2="100%">
      <stop offset="0%" style="stop-color:#FFFFFF"/>
      <stop offset="100%" style="stop-color:#F8FAFC"/>
    </linearGradient>
  </defs>

  <!-- Background -->
  <rect width="600" height="400" fill="url(#heroBg)" rx="16"/>

  <!-- Main Dashboard Screen -->
  <rect x="40" y="60" width="520" height="300" rx="16" fill="url(#screenBg)" stroke="#CBD5E1" stroke-width="2"/>
  <rect x="40" y="60" width="520" height="40" rx="16" fill="url(#screenBg)" opacity="0.9"/>

  <!-- Browser Header -->
  <circle cx="65" cy="80" r="6" fill="#EF4444"/>
  <circle cx="85" cy="80" r="6" fill="#F59E0B"/>
  <circle cx="105" cy="80" r="6" fill="#10B981"/>
  <rect x="125" y="73" width="200" height="14" rx="7" fill="#E2E8F0"/>
  <rect x="135" y="77" width="40" height="6" rx="3" fill="#94A3B8"/>
  <rect x="185" y="77" width="30" height="6" rx="3" fill="#94A3B8"/>

  <!-- Sidebar -->
  <rect x="60" y="120" width="140" height="220" rx="8" fill="#1E293B"/>
  <rect x="60" y="120" width="140" height="40" rx="8" fill="#334155"/>

  <!-- Sidebar Menu Items -->
  <rect x="75" y="145" width="20" height="20" rx="4" fill="#3B82F6" opacity="0.8"/>
  <rect x="105" y="145" width="70" height="8" rx="4" fill="#CBD5E1"/>
  <rect x="105" y="158" width="50" height="6" rx="3" fill="#94A3B8"/>

  <rect x="75" y="175" width="20" height="20" rx="4" fill="#64748B"/>
  <rect x="105" y="175" width="65" height="8" rx="4" fill="#CBD5E1"/>
  <rect x="105" y="188" width="45" height="6" rx="3" fill="#94A3B8"/>

  <rect x="75" y="205" width="20" height="20" rx="4" fill="#64748B"/>
  <rect x="105" y="205" width="60" height="8" rx="4" fill="#CBD5E1"/>
  <rect x="105" y="218" width="40" height="6" rx="3" fill="#94A3B8"/>

  <rect x="75" y="235" width="20" height="20" rx="4" fill="#64748B"/>
  <rect x="105" y="235" width="55" height="8" rx="4" fill="#CBD5E1"/>
  <rect x="105" y="248" width="35" height="6" rx="3" fill="#94A3B8"/>

  <rect x="75" y="265" width="20" height="20" rx="4" fill="#64748B"/>
  <rect x="105" y="265" width="50" height="8" rx="4" fill="#CBD5E1"/>
  <rect x="105" y="278" width="30" height="6" rx="3" fill="#94A3B8"/>

  <!-- Main Content Area -->
  <rect x="220" y="120" width="320" height="220" rx="8" fill="white"/>

  <!-- Header -->
  <rect x="240" y="140" width="280" height="30" rx="6" fill="#F8FAFC"/>
  <rect x="250" y="148" width="80" height="8" rx="4" fill="#3B82F6"/>
  <rect x="250" y="160" width="60" height="6" rx="3" fill="#94A3B8"/>
  <circle cx="480" cy="155" r="10" fill="#10B981"/>
  <rect x="430" y="150" width="35" height="10" rx="5" fill="#CBD5E1"/>

  <!-- Stats Cards -->
  <rect x="240" y="185" width="85" height="60" rx="6" fill="url(#cardBg)" stroke="#E2E8F0" stroke-width="1"/>
  <rect x="245" y="190" width="25" height="6" rx="3" fill="#CBD5E1"/>
  <rect x="245" y="200" width="35" height="10" rx="5" fill="#3B82F6"/>
  <rect x="245" y="215" width="30" height="4" rx="2" fill="#94A3B8"/>

  <rect x="340" y="185" width="85" height="60" rx="6" fill="url(#cardBg)" stroke="#E2E8F0" stroke-width="1"/>
  <rect x="345" y="190" width="30" height="6" rx="3" fill="#CBD5E1"/>
  <rect x="345" y="200" width="40" height="10" rx="5" fill="#10B981"/>
  <rect x="345" y="215" width="35" height="4" rx="2" fill="#94A3B8"/>

  <rect x="440" y="185" width="85" height="60" rx="6" fill="url(#cardBg)" stroke="#E2E8F0" stroke-width="1"/>
  <rect x="445" y="190" width="25" height="6" rx="3" fill="#CBD5E1"/>
  <rect x="445" y="200" width="35" height="10" rx="5" fill="#F59E0B"/>
  <rect x="445" y="215" width="30" height="4" rx="2" fill="#94A3B8"/>

  <!-- Attendance Table/List -->
  <rect x="240" y="260" width="280" height="70" rx="6" fill="#F8FAFC"/>
  <rect x="250" y="270" width="260" height="8" rx="4" fill="#E2E8F0"/>
  <rect x="250" y="285" width="200" height="6" rx="3" fill="#CBD5E1"/>
  <rect x="250" y="295" width="180" height="6" rx="3" fill="#CBD5E1"/>
  <rect x="250" y="305" width="220" height="6" rx="3" fill="#CBD5E1"/>
  <rect x="250" y="315" width="160" height="6" rx="3" fill="#CBD5E1"/>

  <!-- Status Indicators -->
  <circle cx="470" cy="285" r="4" fill="#10B981"/>
  <circle cx="470" cy="295" r="4" fill="#10B981"/>
  <circle cx="470" cy="305" r="4" fill="#F59E0B"/>
  <circle cx="470" cy="315" r="4" fill="#EF4444"/>

  <!-- Floating Elements -->
  <circle cx="120" cy="30" r="18" fill="#3B82F6" opacity="0.8"/>
  <circle cx="120" cy="25" r="9" fill="white"/>
  <rect x="108" y="35" width="24" height="18" rx="12" fill="#3B82F6" opacity="0.8"/>

  <circle cx="480" cy="25" r="15" fill="#10B981" opacity="0.8"/>
  <circle cx="480" cy="20" r="7.5" fill="white"/>
  <rect x="470" y="30" width="20" height="15" rx="10" fill="#10B981" opacity="0.8"/>

  <!-- Notification Badge -->
  <circle cx="165" cy="145" r="8" fill="#EF4444"/>
  <text x="165" y="150" text-anchor="middle" font-family="Arial, sans-serif" font-size="10" font-weight="bold" fill="white">3</text>

  <!-- Progress Bar -->
  <rect x="240" y="340" width="200" height="6" rx="3" fill="#E2E8F0"/>
  <rect x="240" y="340" width="150" height="6" rx="3" fill="#3B82F6"/>
</svg>